# xmcd
#
# Track frame offsets:
#	150
#	35139
#	73164
#	86504
#	112237
#	137198
#	172420
#	205195
#	242213
#	278011
#
# Disc length: 4430 seconds
#
# Revision: 1
# Processed by: cddbd v1.5.2PL0 Copyright (c) Steve Scherf et al.
# Submitted via: audiograbber 1.83.01
#
DISCID=a1114c0a
DTITLE=Grateful Dead - 82-09-11 West Palm Beach Auditorium, West Palm Beach FL
DYEAR=1900
DGENRE=
TTITLE0=Minglewood Blues
TTITLE1=They Love Each Other
TTITLE2=Me and My Uncle
TTITLE3=Big River
TTITLE4=Dupree's Diamond Blues
TTITLE5=CC Rider
TTITLE6=Loser
TTITLE7=Looks Like Rain
TTITLE8=Tennessee Jed
TTITLE9=Let It Grow
EXTD=
EXTT0=
EXTT1=
EXTT2=
EXTT3=
EXTT4=
EXTT5=
EXTT6=
EXTT7=
EXTT8=
EXTT9=
PLAYORDER=
